<svg xmlns="http://www.w3.org/2000/svg" version="1.1" xmlns:xlink="http://www.w3.org/1999/xlink" viewBox="0 0 16.767741918965683 5.726046022648864"><g transform="matrix(1,0,0,1,4.01708693952311,1.8761014204153414)"><g clip-path="url(#SvgjsClipPath1001)"><g clip-path="url(#SvgjsClipPath100052cb2e90-023e-4716-90da-dfc52d983da2)"><path d=" M -2.549271447997224 1.7709271658595611 C -2.5547781958446922 1.6240805565937366 -2.5929018347887043 1.5667538995149628 -2.854213493328402 1.2810148723185466 C -3.0149157386858754 1.105712859294219 -3.128586872742788 0.8925551942336494 -3.1846183641765062 0.6614351401469727 L -3.14183516936156 0.6228879052146934 L -3.14183516936156 0.6228879052146934 L -2.6563471005868875 0.18479552090498452 L -2.6563471005868875 -0.13111295390021194 L -2.721439684117219 -0.13111295390021194 L -2.721439684117219 -0.2354116994556822 L -2.4020012427431325 -0.2354116994556822 L -2.4020012427431325 -0.13111295390021194 L -2.4670938262734645 -0.13111295390021194 L -2.4670938262734645 0.014086337633463675 L -1.8753772968856623 -0.519691673803624 L -1.812261494633909 -0.5764064700104568 L -1.6649912893798178 -0.443632660799274 L -1.245631260995685 -0.06517317839334669 C -1.1501062425010713 -0.12007615513232228 -1.0301061013398947 -0.107312607354495 -0.948266877232391 -0.03354467793609217 L -0.7965724472119575 0.10341802493684016 L -0.8589351899290145 0.17255830346616574 L -0.7925718184338821 0.23261480135821455 L -0.729361883740292 0.28951786244872135 C -0.7101957272030757 0.30702956084593924 -0.7086848472793741 0.33670156379196126 -0.7259731158341571 0.3560694988275275 L -0.7259731158341571 0.3560694988275275 C -0.7435012567884307 0.37524133095145284 -0.7731881907560978 0.3767519028565216 -0.7925718184338821 0.3594582667336621 L -0.9222392570644411 0.2425457739720247 L -0.9671404318207224 0.2922477032619961 L -1.0121357390188406 0.34199669877288574 L -0.8825153666091996 0.45872092665084896 C -0.8632684751934239 0.47621361774402304 -0.8617546926576569 0.5059636495233317 -0.8791265987030648 0.5253196292505735 L -0.8791265987030648 0.5253196292505735 C -0.8874702827527199 0.5346479345389885 -0.8991856746003908 0.5402689865318917 -0.9116830257416098 0.5409402223529041 C -0.9241803768828292 0.5416114581739162 -0.9364304495678142 0.5372775972089154 -0.9457253013027902 0.5288966620403821 L -1.0752515412705939 0.4119841692787449 L -1.1376142839876509 0.48112444780807073 L -1.2893557802290028 0.3441617449351384 C -1.362047073037494 0.278506599140693 -1.3906326613834419 0.17697468867762245 -1.3628732173037519 0.08303835127911441 L -1.812261494633909 -0.3222488770503763 L -2.970749456322691 0.7226212273410657 C -2.9650701323318542 0.7390630271819401 -2.9591711659767315 0.755285184658528 -2.953052557257322 0.7712876997708291 C -2.8981516671937553 0.9124541419022412 -2.817544668489509 1.0422136957458812 -2.71532107539781 1.1539831420594244 C -2.398612474836998 1.5004375942407493 -2.3640658686827947 1.5602587610282055 -2.3604888358929865 1.7709742320804795 Z M -2.188508864656665 0.5679145591818464 L -1.9108181612373178 0.5679145591818464 L -1.9108181612373178 0.8456052626011938 L -2.188508864656665 0.8456052626011938 Z M -1.7134224307049888 1.0426715295870927 L -1.4357317272856414 1.0426715295870927 L -1.4357317272856414 1.3203622330064406 L -1.7134224307049888 1.3203622330064406 Z M -1.7134224307049888 0.5677262942981725 L -1.4357317272856414 0.5677262942981725 L -1.4357317272856414 0.8454169977175194 L -1.7134224307049888 0.8454169977175194 Z M -2.188508864656665 1.0426715295870927 L -1.9108181612373178 1.0426715295870927 L -1.9108181612373178 1.3203622330064406 L -2.188508864656665 1.3203622330064406 Z" fill="#ffffff" transform="matrix(1,0,0,1,0,0)" fill-rule="nonzero"></path></g><g clip-path="url(#SvgjsClipPath100052cb2e90-023e-4716-90da-dfc52d983da2)"><path d=" M -1.812261494633909 -1.0831684706403062 C -1.252565070837882 -1.0836209095392437 -0.7455034219593313 -0.7532340589579574 -0.5198241194840074 -0.24105328623677214 C -0.2941448170086831 0.27112748648441287 -0.39251001274485997 0.8682801261572517 -0.7705448270440076 1.2810148723185466 C -1.0764752630144758 1.6156557030493195 -1.0764752630144758 1.6369296349044964 -1.0760987332471275 1.8558816946175134 L -1.0760987332471275 1.8836978311803665 L -1.0756751372588607 1.8836978311803665 L -1.0756751372588607 2.0569015241605695 L -1.0756751372588607 2.0573251201488367 L -1.0756751372588607 2.0593019014274154 L -1.0756751372588607 2.0593019014274154 L -1.0756751372588607 2.0609962853804826 L -1.0756751372588607 2.0613728151478314 L -1.0756751372588607 2.063067199100898 L -1.0756751372588607 2.0634907950891654 L -1.0756751372588607 2.0651851790422326 L -1.0759104683634537 2.065844106135092 L -1.0759104683634537 2.0668795629953 L -1.0759104683634537 2.0673031589835666 L -1.0759104683634537 2.068715145611122 L -1.0759104683634537 2.069138741599389 L -1.0759104683634537 2.0702212646805154 L -1.0759104683634537 2.070833125552456 L -1.0759104683634537 2.0714449864243973 L -1.0759104683634537 2.0714449864243973 L -1.0759104683634537 2.071868582412664 L -1.0759104683634537 2.072292178400931 L -1.0759104683634537 2.0729511054937904 L -1.0759104683634537 2.073421767702975 L -1.0759104683634537 2.073421767702975 L -1.0759104683634537 2.0738453636912424 L -1.0761457994680463 2.074504290784102 L -1.0761457994680463 2.0749278867723686 L -1.0761457994680463 2.0755397476443096 L -1.0761457994680463 2.0755397476443096 L -1.0761457994680463 2.075963343632577 L -1.076381130572639 2.0765752045045174 L -1.076381130572639 2.076998800492784 L -1.076381130572639 2.0781283897948284 L -1.0766164616772316 2.0781283897948284 L -1.0766164616772316 2.078551985783096 L -1.0766164616772316 2.0791638466550366 L -1.0768517927818246 2.0795874426433034 L -1.0768517927818246 2.08001103863157 L -1.0768517927818246 2.08001103863157 L -1.0768517927818246 2.0806228995035116 L -1.0770871238864168 2.0810464954917784 L -1.0770871238864168 2.0814700914800452 L -1.0770871238864168 2.0821290185729047 L -1.0773224549910099 2.0821290185729047 L -1.0773224549910099 2.0821290185729047 L -1.0773224549910099 2.0827408794448456 L -1.0773224549910099 2.0831644754331125 L -1.0773224549910099 2.0835880714213793 L -1.0773224549910099 2.084011667409647 L -1.0773224549910099 2.084011667409647 L -1.0775577860956025 2.0844352633979137 L -1.0775577860956025 2.0848588593861805 L -1.0775577860956025 2.0855177864790395 L -1.0775577860956025 2.0859413824673068 L -1.0775577860956025 2.0859413824673068 L -1.0775577860956025 2.086176713571899 L -1.0777931172001955 2.0867885744438404 L -1.0777931172001955 2.0867885744438404 L -1.293356409007078 2.8003595497897247 C -1.305036130009825 2.8405600300638594 -1.3418607492935475 2.8682168535050714 -1.3837235531706622 2.86822904035425 L -1.3837235531706622 2.8682290403542496 L -1.5228042359849283 2.8682290403542496 C -1.5573979083600507 2.977093209338818 -1.6736985402497466 3.057105784900324 -1.812261494633909 3.057105784900324 C -1.9508244490180713 3.057105784900324 -2.0672662795705232 2.977093209338818 -2.1016246208410525 2.8682761065751676 L -2.24098770098083 2.8682761065751676 C -2.2853871553690843 2.8682038786361232 -2.3237688605414677 2.8372793023116123 -2.333284560202074 2.7939114775238854 L -2.5427292432895476 2.087918163745884 C -2.5468006897737685 2.077297699693827 -2.548875036011362 2.066016447463221 -2.548847852008957 2.054642345556481 L -2.548847852008957 1.9599451090683915 L -1.264881345351365 1.9599451090683915 L -1.264881345351365 1.8836978311803665 L -1.2644577493630984 1.8836978311803665 L -1.2644577493630984 1.8558816946175134 C -1.264881345351365 1.5705191971884456 -1.264881345351365 1.5427030606255925 -0.9093901787536822 1.153936075838506 C -0.5453050393506973 0.7556203528181189 -0.4853110681259425 0.1657564291209368 -0.761746397934568 -0.2977054488937939 C -1.0381817277431948 -0.7611673269085246 -1.585702759290426 -0.9886743489456642 -2.1091830407394143 -0.8575949879713572 C -2.632663322188403 -0.7265156269970503 -3.008362932981962 -0.2678343351261915 -3.033771126132607 0.27120910251141184 L -3.2200121623072437 0.4391413787487388 C -3.2228361355623556 0.40268074627718153 -3.2242481221899117 0.36587496151888854 -3.2242481221899117 0.3287240244738594 C -3.2240402766308156 -0.4510085482140418 -2.5919940673211217 -1.083054757523427 -1.8122614946335647 -1.0832626030821433 Z M -1.4268362115320388 2.587996761005302 L -1.8028482504502024 2.679164030924501 L -1.454558215653055 2.679164030924501 Z M -2.1743889983811053 2.6661266877300664 L -1.3938427906681468 2.476449817428377 L -1.3608964360251736 2.365185271176964 L -2.2029111282577363 2.569829199730748 Z M -2.2317156554598787 2.4731551819640796 L -1.3274794191730146 2.2534971289372843 L -1.2965098458086197 2.1490101184981403 L -1.3200429562678864 2.1490101184981403 L -2.260143652894673 2.3774224886157826 Z M -2.28880698143406 2.2807484708491153 L -1.746180520464288 2.1489630522772214 L -2.328013143459198 2.1489630522772214 Z" fill="#facf0e" transform="matrix(1,0,0,1,0,0)" fill-rule="nonzero"></path></g></g><g><path d=" M 0.5145 1.1159999999999999 Q 0.4245 1.1159999999999999 0.3435 1.0979999999999999 Q 0.2625 1.0799999999999998 0.20025 1.04025 Q 0.138 1.0005 0.10275000000000001 0.9397499999999999 Q 0.0675 0.8789999999999999 0.0675 0.7919999999999998 Q 0.0675 0.7844999999999999 0.0675 0.7762499999999999 Q 0.0675 0.7679999999999998 0.069 0.7634999999999998 L 0.291 0.7634999999999998 Q 0.2895 0.7679999999999998 0.2895 0.7754999999999999 Q 0.2895 0.7829999999999999 0.2895 0.7889999999999999 Q 0.2895 0.8369999999999999 0.31575000000000003 0.8699999999999999 Q 0.342 0.9029999999999998 0.393 0.9194999999999999 Q 0.444 0.9359999999999998 0.5115000000000001 0.9359999999999998 Q 0.555 0.9359999999999998 0.58875 0.9307499999999999 Q 0.6225 0.9254999999999999 0.64875 0.9157499999999998 Q 0.675 0.9059999999999999 0.69225 0.8924999999999998 Q 0.7095 0.8789999999999999 0.71775 0.8609999999999999 Q 0.726 0.8429999999999999 0.726 0.8204999999999998 Q 0.726 0.7799999999999998 0.69975 0.7544999999999998 Q 0.6735 0.7289999999999999 0.62775 0.7109999999999999 Q 0.582 0.6929999999999998 0.525 0.6779999999999999 Q 0.468 0.6629999999999998 0.40800000000000003 0.6472499999999999 Q 0.34800000000000003 0.6314999999999998 0.291 0.6082499999999998 Q 0.234 0.5849999999999999 0.189 0.5519999999999998 Q 0.14400000000000002 0.5189999999999999 0.117 0.46799999999999986 Q 0.09 0.4169999999999998 0.09 0.34499999999999986 Q 0.09 0.26849999999999985 0.12225 0.21299999999999986 Q 0.1545 0.15749999999999986 0.213 0.12149999999999983 Q 0.2715 0.08549999999999991 0.34800000000000003 0.06824999999999992 Q 0.4245 0.050999999999999934 0.5145 0.050999999999999934 Q 0.5985 0.050999999999999934 0.6735 0.06824999999999992 Q 0.7485 0.08549999999999991 0.8055 0.12299999999999989 Q 0.8625 0.16049999999999986 0.89475 0.2174999999999998 Q 0.927 0.27449999999999986 0.927 0.3524999999999998 L 0.927 0.37049999999999983 L 0.7095 0.37049999999999983 L 0.7095 0.3584999999999998 Q 0.7095 0.31799999999999984 0.6855 0.28949999999999987 Q 0.6615 0.2609999999999999 0.618 0.24449999999999983 Q 0.5745 0.22799999999999987 0.516 0.22799999999999987 Q 0.453 0.22799999999999987 0.40875 0.23999999999999988 Q 0.3645 0.2519999999999999 0.34125 0.2752499999999999 Q 0.318 0.2984999999999999 0.318 0.32999999999999985 Q 0.318 0.3659999999999999 0.34425 0.3892499999999999 Q 0.3705 0.41249999999999987 0.41625 0.42974999999999985 Q 0.462 0.44699999999999984 0.519 0.4604999999999998 Q 0.5760000000000001 0.47399999999999987 0.636 0.4904999999999998 Q 0.6960000000000001 0.5069999999999999 0.753 0.5294999999999999 Q 0.81 0.5519999999999998 0.855 0.5857499999999999 Q 0.9 0.6194999999999998 0.927 0.6689999999999998 Q 0.9540000000000001 0.7184999999999999 0.9540000000000001 0.7874999999999999 Q 0.9540000000000001 0.9059999999999999 0.897 0.9779999999999999 Q 0.84 1.0499999999999998 0.741 1.083 Q 0.642 1.1159999999999999 0.5145 1.1159999999999999 M 1.131024169921875 1.0979999999999999 L 1.131024169921875 0.06899999999999995 L 1.336524169921875 0.06899999999999995 L 1.750524169921875 0.6239999999999999 Q 1.759524169921875 0.6344999999999998 1.773024169921875 0.6532499999999999 Q 1.7865241699218748 0.6719999999999999 1.7985241699218748 0.6899999999999998 Q 1.8105241699218748 0.7079999999999999 1.815024169921875 0.7184999999999999 L 1.8225241699218748 0.7184999999999999 Q 1.8225241699218748 0.6929999999999998 1.8225241699218748 0.6682499999999998 Q 1.8225241699218748 0.6434999999999998 1.8225241699218748 0.6239999999999999 L 1.8225241699218748 0.06899999999999995 L 2.0340241699218753 0.06899999999999995 L 2.0340241699218753 1.0979999999999999 L 1.828524169921875 1.0979999999999999 L 1.405524169921875 0.5294999999999999 Q 1.3905241699218749 0.5084999999999998 1.374024169921875 0.4829999999999999 Q 1.357524169921875 0.4574999999999999 1.350024169921875 0.44399999999999984 L 1.3425241699218748 0.44399999999999984 Q 1.3425241699218748 0.4664999999999998 1.3425241699218748 0.48824999999999985 Q 1.3425241699218748 0.5099999999999999 1.3425241699218748 0.5294999999999999 L 1.3425241699218748 1.0979999999999999 L 1.131024169921875 1.0979999999999999 M 2.5530424804687497 1.0979999999999999 L 2.5530424804687497 0.06899999999999995 L 3.0885424804687496 0.06899999999999995 Q 3.19954248046875 0.06899999999999995 3.27379248046875 0.11024999999999985 Q 3.3480424804687496 0.15149999999999986 3.3862924804687498 0.2257499999999999 Q 3.42454248046875 0.2999999999999998 3.42454248046875 0.4019999999999998 Q 3.42454248046875 0.5039999999999999 3.3847924804687497 0.5797499999999999 Q 3.34504248046875 0.6554999999999999 3.2685424804687497 0.6974999999999998 Q 3.19204248046875 0.7394999999999998 3.0810424804687497 0.7394999999999998 L 2.7765424804687497 0.7394999999999998 L 2.7765424804687497 1.0979999999999999 L 2.5530424804687497 1.0979999999999999 M 2.7765424804687497 0.5564999999999999 L 3.05104248046875 0.5564999999999999 Q 3.12154248046875 0.5564999999999999 3.1597924804687496 0.5159999999999999 Q 3.1980424804687497 0.4754999999999998 3.1980424804687497 0.40349999999999986 Q 3.1980424804687497 0.35399999999999987 3.18154248046875 0.32099999999999984 Q 3.16504248046875 0.2879999999999998 3.13279248046875 0.2699999999999998 Q 3.10054248046875 0.2519999999999999 3.05104248046875 0.2519999999999999 L 2.7765424804687497 0.2519999999999999 L 2.7765424804687497 0.5564999999999999 M 3.89996044921875 1.1159999999999999 Q 3.77096044921875 1.1159999999999999 3.68096044921875 1.0717499999999998 Q 3.5909604492187497 1.0274999999999999 3.5444604492187497 0.9352499999999999 Q 3.4979604492187497 0.8429999999999999 3.4979604492187497 0.7034999999999998 Q 3.4979604492187497 0.5609999999999998 3.5444604492187497 0.47024999999999983 Q 3.5909604492187497 0.37949999999999984 3.68096044921875 0.3352499999999998 Q 3.77096044921875 0.2909999999999998 3.89996044921875 0.2909999999999998 Q 4.03196044921875 0.2909999999999998 4.12121044921875 0.3352499999999998 Q 4.21046044921875 0.37949999999999984 4.25696044921875 0.47024999999999983 Q 4.30346044921875 0.5609999999999998 4.30346044921875 0.7034999999999998 Q 4.30346044921875 0.8429999999999999 4.25696044921875 0.9352499999999999 Q 4.21046044921875 1.0274999999999999 4.12121044921875 1.0717499999999998 Q 4.03196044921875 1.1159999999999999 3.89996044921875 1.1159999999999999 M 3.89996044921875 0.9539999999999998 Q 3.96896044921875 0.9539999999999998 4.01021044921875 0.9284999999999999 Q 4.05146044921875 0.9029999999999998 4.07096044921875 0.8504999999999998 Q 4.0904604492187495 0.7979999999999998 4.0904604492187495 0.7214999999999998 L 4.0904604492187495 0.6854999999999998 Q 4.0904604492187495 0.6089999999999999 4.07096044921875 0.5564999999999999 Q 4.05146044921875 0.5039999999999999 4.01021044921875 0.4777499999999999 Q 3.96896044921875 0.4514999999999999 3.89996044921875 0.4514999999999999 Q 3.83246044921875 0.4514999999999999 3.7912104492187497 0.4777499999999999 Q 3.74996044921875 0.5039999999999999 3.7304604492187496 0.5564999999999999 Q 3.71096044921875 0.6089999999999999 3.71096044921875 0.6854999999999998 L 3.71096044921875 0.7214999999999998 Q 3.71096044921875 0.7979999999999998 3.7304604492187496 0.8504999999999998 Q 3.74996044921875 0.9029999999999998 3.7912104492187497 0.9284999999999999 Q 3.83246044921875 0.9539999999999998 3.89996044921875 0.9539999999999998 M 4.609424560546874 1.0979999999999999 L 4.361924560546875 0.30899999999999983 L 4.580924560546875 0.30899999999999983 L 4.6799245605468744 0.6959999999999998 Q 4.687424560546875 0.7259999999999999 4.694174560546875 0.7604999999999998 Q 4.700924560546874 0.7949999999999999 4.706924560546875 0.8219999999999998 Q 4.712924560546875 0.8489999999999999 4.715924560546875 0.8609999999999999 L 4.726424560546874 0.8609999999999999 Q 4.732424560546875 0.8309999999999998 4.739174560546875 0.7987499999999998 Q 4.745924560546875 0.7664999999999998 4.7526745605468745 0.7372499999999998 Q 4.759424560546875 0.7079999999999999 4.762424560546875 0.6929999999999998 L 4.856924560546875 0.30899999999999983 L 5.074424560546875 0.30899999999999983 L 5.171924560546874 0.6944999999999999 Q 5.177924560546875 0.7154999999999998 5.183924560546875 0.7462499999999999 Q 5.189924560546875 0.7769999999999999 5.1974245605468745 0.8077499999999999 Q 5.204924560546875 0.8384999999999998 5.209424560546875 0.8609999999999999 L 5.218424560546874 0.8609999999999999 Q 5.2214245605468745 0.8399999999999999 5.228174560546875 0.8114999999999999 Q 5.234924560546875 0.7829999999999999 5.241674560546874 0.7529999999999999 Q 5.248424560546875 0.7229999999999999 5.254424560546875 0.6989999999999998 L 5.351924560546875 0.30899999999999983 L 5.552924560546875 0.30899999999999983 L 5.306924560546875 1.0979999999999999 L 5.092424560546875 1.0979999999999999 L 5.005424560546874 0.7454999999999998 Q 4.999424560546875 0.7169999999999999 4.990424560546875 0.6817499999999999 Q 4.981424560546875 0.6464999999999999 4.974674560546875 0.6119999999999999 Q 4.967924560546875 0.5774999999999999 4.9634245605468745 0.5519999999999998 L 4.954424560546875 0.5519999999999998 Q 4.954424560546875 0.5654999999999999 4.948424560546875 0.5932499999999998 Q 4.942424560546875 0.6209999999999998 4.934174560546875 0.6592499999999999 Q 4.925924560546875 0.6974999999999998 4.913924560546874 0.7454999999999998 L 4.823924560546875 1.0979999999999999 L 4.609424560546874 1.0979999999999999 M 6.008885009765625 1.1159999999999999 Q 5.8783850097656245 1.1159999999999999 5.789885009765625 1.0717499999999998 Q 5.701385009765625 1.0274999999999999 5.656385009765625 0.9359999999999998 Q 5.611385009765625 0.8444999999999998 5.611385009765625 0.7034999999999998 Q 5.611385009765625 0.5609999999999998 5.656385009765625 0.47024999999999983 Q 5.701385009765625 0.37949999999999984 5.789135009765625 0.3352499999999998 Q 5.8768850097656244 0.2909999999999998 6.004385009765625 0.2909999999999998 Q 6.124385009765625 0.2909999999999998 6.2068850097656245 0.3337499999999999 Q 6.289385009765625 0.37649999999999983 6.331385009765625 0.4657499999999999 Q 6.373385009765625 0.5549999999999998 6.373385009765625 0.6959999999999998 L 6.373385009765625 0.7499999999999998 L 5.822885009765625 0.7499999999999998 Q 5.825885009765624 0.8189999999999998 5.844635009765625 0.8669999999999999 Q 5.863385009765625 0.9149999999999998 5.9031350097656246 0.9382499999999998 Q 5.942885009765624 0.9614999999999998 6.008885009765625 0.9614999999999998 Q 6.044885009765625 0.9614999999999998 6.074135009765625 0.9524999999999999 Q 6.103385009765625 0.9434999999999999 6.124385009765625 0.9254999999999999 Q 6.145385009765625 0.9074999999999999 6.157385009765624 0.8804999999999998 Q 6.169385009765625 0.8534999999999999 6.169385009765625 0.8189999999999998 L 6.373385009765625 0.8189999999999998 Q 6.373385009765625 0.8939999999999999 6.3463850097656245 0.9494999999999999 Q 6.319385009765624 1.005 6.271385009765624 1.04175 Q 6.223385009765625 1.0784999999999998 6.156635009765624 1.0972499999999998 Q 6.0898850097656245 1.1159999999999999 6.008885009765625 1.1159999999999999 M 5.825885009765624 0.6179999999999999 L 6.1588850097656245 0.6179999999999999 Q 6.1588850097656245 0.5729999999999998 6.147635009765625 0.5399999999999998 Q 6.1363850097656245 0.5069999999999999 6.116885009765625 0.4859999999999999 Q 6.097385009765625 0.46499999999999986 6.069635009765625 0.4552499999999998 Q 6.0418850097656245 0.4454999999999999 6.007385009765625 0.4454999999999999 Q 5.950385009765625 0.4454999999999999 5.912135009765625 0.46424999999999983 Q 5.873885009765624 0.4829999999999999 5.8536350097656245 0.5212499999999999 Q 5.833385009765625 0.5594999999999999 5.825885009765624 0.6179999999999999 M 6.524861572265625 1.0979999999999999 L 6.524861572265625 0.30899999999999983 L 6.697361572265625 0.30899999999999983 L 6.713861572265625 0.43199999999999983 L 6.724361572265624 0.43199999999999983 Q 6.739361572265625 0.3929999999999999 6.763361572265625 0.3607499999999999 Q 6.787361572265625 0.3284999999999999 6.8233615722656245 0.30899999999999983 Q 6.859361572265625 0.28949999999999987 6.907361572265625 0.28949999999999987 Q 6.932861572265624 0.28949999999999987 6.953861572265625 0.29474999999999985 Q 6.974861572265625 0.2999999999999998 6.985361572265624 0.3044999999999999 L 6.985361572265624 0.4934999999999998 L 6.920861572265625 0.4934999999999998 Q 6.874361572265625 0.4934999999999998 6.839111572265624 0.5062499999999999 Q 6.803861572265625 0.5189999999999999 6.779861572265625 0.5459999999999998 Q 6.755861572265625 0.5729999999999998 6.744611572265625 0.6119999999999999 Q 6.733361572265625 0.6509999999999998 6.733361572265625 0.7034999999999998 L 6.733361572265625 1.0979999999999999 L 6.524861572265625 1.0979999999999999 M 7.7803154296875 1.1159999999999999 Q 7.6468154296875 1.1159999999999999 7.5493154296875 1.0792499999999998 Q 7.4518154296875 1.0424999999999998 7.3993154296874994 0.9764999999999999 Q 7.346815429687499 0.9104999999999999 7.346815429687499 0.8189999999999998 Q 7.346815429687499 0.7154999999999998 7.4023154296875 0.6539999999999999 Q 7.4578154296875 0.5924999999999998 7.5448154296875 0.5684999999999999 L 7.5448154296875 0.5624999999999999 Q 7.4698154296874995 0.5309999999999998 7.421065429687499 0.4784999999999998 Q 7.372315429687499 0.4259999999999998 7.372315429687499 0.33599999999999985 Q 7.372315429687499 0.24599999999999989 7.4233154296874995 0.1822499999999998 Q 7.4743154296875 0.11849999999999983 7.5688154296875 0.08474999999999988 Q 7.6633154296875 0.050999999999999934 7.790815429687499 0.050999999999999934 Q 7.9153154296874995 0.050999999999999934 8.0083154296875 0.08624999999999994 Q 8.1013154296875 0.12149999999999983 8.1523154296875 0.1852499999999998 Q 8.2033154296875 0.2489999999999999 8.2033154296875 0.33299999999999985 L 8.2033154296875 0.37049999999999983 L 8.0023154296875 0.37049999999999983 L 8.0023154296875 0.3464999999999998 Q 8.0023154296875 0.3014999999999999 7.977565429687499 0.2722499999999999 Q 7.952815429687499 0.24299999999999988 7.907065429687499 0.22799999999999987 Q 7.861315429687499 0.21299999999999986 7.793815429687499 0.21299999999999986 Q 7.744315429687499 0.21299999999999986 7.7045654296874995 0.2234999999999998 Q 7.6648154296875 0.23399999999999987 7.6385654296875 0.2527499999999998 Q 7.6123154296874995 0.27149999999999985 7.5988154296875 0.2992499999999998 Q 7.585315429687499 0.32699999999999985 7.585315429687499 0.3614999999999998 Q 7.585315429687499 0.4049999999999998 7.607815429687499 0.43574999999999986 Q 7.630315429687499 0.4664999999999998 7.6670654296875 0.4814999999999998 Q 7.703815429687499 0.49649999999999983 7.747315429687499 0.49649999999999983 L 7.859815429687499 0.49649999999999983 L 7.859815429687499 0.6539999999999999 L 7.742815429687499 0.6539999999999999 Q 7.696315429687499 0.6539999999999999 7.653565429687499 0.6667499999999998 Q 7.6108154296874995 0.6794999999999999 7.586065429687499 0.7102499999999998 Q 7.561315429687499 0.7409999999999999 7.561315429687499 0.7979999999999998 Q 7.561315429687499 0.8504999999999998 7.5868154296874994 0.8842499999999999 Q 7.6123154296874995 0.9179999999999999 7.6618154296875 0.9352499999999999 Q 7.7113154296875 0.9524999999999999 7.7833154296875 0.9524999999999999 Q 7.859815429687499 0.9524999999999999 7.908565429687499 0.9337499999999999 Q 7.957315429687499 0.9149999999999998 7.979815429687499 0.8789999999999999 Q 8.0023154296875 0.8429999999999999 8.0023154296875 0.7949999999999999 L 8.0023154296875 0.49649999999999983 L 8.3563154296875 0.49649999999999983 L 8.3563154296875 0.6539999999999999 L 8.2048154296875 0.6539999999999999 L 8.2048154296875 0.7889999999999999 Q 8.2048154296875 0.8879999999999999 8.1583154296875 0.9614999999999998 Q 8.1118154296875 1.035 8.0173154296875 1.0755 Q 7.9228154296875 1.1159999999999999 7.7803154296875 1.1159999999999999 M 8.8107568359375 1.0979999999999999 L 8.8107568359375 0.06899999999999995 L 9.0342568359375 0.06899999999999995 L 9.0342568359375 1.0979999999999999 L 8.8107568359375 1.0979999999999999 M 9.242794921875 1.0979999999999999 L 9.242794921875 0.30899999999999983 L 9.415294921874999 0.30899999999999983 L 9.431794921875 0.4169999999999998 L 9.442294921875 0.4169999999999998 Q 9.469294921874999 0.3779999999999999 9.507544921874999 0.3494999999999998 Q 9.545794921875 0.32099999999999984 9.593794921874998 0.3059999999999998 Q 9.641794921874999 0.2909999999999998 9.698794921874999 0.2909999999999998 Q 9.776794921875 0.2909999999999998 9.835294921874999 0.3194999999999999 Q 9.893794921875 0.34799999999999986 9.926044921874999 0.40949999999999986 Q 9.958294921875 0.47099999999999986 9.958294921875 0.5699999999999998 L 9.958294921875 1.0979999999999999 L 9.749794921874999 1.0979999999999999 L 9.749794921874999 0.6029999999999999 Q 9.749794921874999 0.5654999999999999 9.740794921874999 0.5392499999999999 Q 9.731794921875 0.5129999999999999 9.714544921875 0.4957499999999998 Q 9.697294921874999 0.4784999999999998 9.671794921875 0.47099999999999986 Q 9.646294921874999 0.4634999999999998 9.614794921875 0.4634999999999998 Q 9.568294921875 0.4634999999999998 9.530794921875 0.4859999999999999 Q 9.493294921875 0.5084999999999998 9.472294921875 0.5474999999999999 Q 9.451294921875 0.5864999999999998 9.451294921875 0.6374999999999998 L 9.451294921875 1.0979999999999999 L 9.242794921875 1.0979999999999999 M 10.180279541015624 1.0979999999999999 L 10.180279541015624 0.4694999999999998 L 10.067779541015625 0.4694999999999998 L 10.067779541015625 0.30899999999999983 L 10.180279541015624 0.30899999999999983 L 10.180279541015624 0.22199999999999986 Q 10.180279541015624 0.15749999999999986 10.202029541015625 0.10724999999999985 Q 10.223779541015624 0.05699999999999994 10.271779541015624 0.028499999999999748 Q 10.319779541015624 -2.220446049250313e-16 10.399279541015625 -2.220446049250313e-16 Q 10.421779541015624 -2.220446049250313e-16 10.446529541015625 0.0029999999999998916 Q 10.471279541015624 0.005999999999999783 10.494529541015623 0.01124999999999976 Q 10.517779541015624 0.016499999999999737 10.534279541015625 0.022499999999999742 L 10.534279541015625 0.16049999999999986 L 10.459279541015624 0.16049999999999986 Q 10.423279541015624 0.16049999999999986 10.406029541015624 0.17849999999999988 Q 10.388779541015625 0.1964999999999999 10.388779541015625 0.23099999999999987 L 10.388779541015625 0.30899999999999983 L 10.534279541015625 0.30899999999999983 L 10.534279541015625 0.4694999999999998 L 10.388779541015625 0.4694999999999998 L 10.388779541015625 1.0979999999999999 L 10.180279541015624 1.0979999999999999 M 10.6302978515625 1.0979999999999999 L 10.6302978515625 0.30899999999999983 L 10.802797851562499 0.30899999999999983 L 10.8192978515625 0.43199999999999983 L 10.8297978515625 0.43199999999999983 Q 10.844797851562499 0.3929999999999999 10.8687978515625 0.3607499999999999 Q 10.892797851562499 0.3284999999999999 10.9287978515625 0.30899999999999983 Q 10.9647978515625 0.28949999999999987 11.0127978515625 0.28949999999999987 Q 11.038297851562499 0.28949999999999987 11.0592978515625 0.29474999999999985 Q 11.080297851562499 0.2999999999999998 11.090797851562499 0.3044999999999999 L 11.090797851562499 0.4934999999999998 L 11.0262978515625 0.4934999999999998 Q 10.979797851562498 0.4934999999999998 10.944547851562499 0.5062499999999999 Q 10.9092978515625 0.5189999999999999 10.8852978515625 0.5459999999999998 Q 10.8612978515625 0.5729999999999998 10.850047851562499 0.6119999999999999 Q 10.8387978515625 0.6509999999999998 10.8387978515625 0.7034999999999998 L 10.8387978515625 1.0979999999999999 L 10.6302978515625 1.0979999999999999 M 11.39229052734375 1.1159999999999999 Q 11.353290527343749 1.1159999999999999 11.309040527343749 1.1069999999999998 Q 11.264790527343749 1.0979999999999999 11.225790527343749 1.0747499999999999 Q 11.18679052734375 1.0514999999999999 11.162040527343748 1.00725 Q 11.13729052734375 0.9629999999999999 11.13729052734375 0.8939999999999999 Q 11.13729052734375 0.8114999999999999 11.173290527343749 0.7574999999999998 Q 11.209290527343748 0.7034999999999998 11.27604052734375 0.6727499999999998 Q 11.34279052734375 0.6419999999999999 11.43579052734375 0.6299999999999999 Q 11.52879052734375 0.6179999999999999 11.641290527343749 0.6179999999999999 L 11.641290527343749 0.5594999999999999 Q 11.641290527343749 0.5249999999999998 11.630040527343748 0.49949999999999983 Q 11.61879052734375 0.47399999999999987 11.591040527343749 0.45899999999999985 Q 11.56329052734375 0.44399999999999984 11.51379052734375 0.44399999999999984 Q 11.46429052734375 0.44399999999999984 11.43354052734375 0.45599999999999985 Q 11.402790527343749 0.46799999999999986 11.39004052734375 0.4867499999999999 Q 11.37729052734375 0.5054999999999998 11.37729052734375 0.5279999999999998 L 11.37729052734375 0.5459999999999998 L 11.174790527343749 0.5459999999999998 Q 11.173290527343749 0.5384999999999999 11.173290527343749 0.5317499999999998 Q 11.173290527343749 0.5249999999999998 11.173290527343749 0.5144999999999998 Q 11.173290527343749 0.4454999999999999 11.215290527343749 0.3952499999999999 Q 11.257290527343748 0.34499999999999986 11.33379052734375 0.31799999999999984 Q 11.410290527343749 0.2909999999999998 11.51229052734375 0.2909999999999998 Q 11.62179052734375 0.2909999999999998 11.696040527343749 0.3194999999999999 Q 11.770290527343748 0.34799999999999986 11.81004052734375 0.40349999999999986 Q 11.84979052734375 0.45899999999999985 11.84979052734375 0.5429999999999998 L 11.84979052734375 0.9014999999999999 Q 11.84979052734375 0.9284999999999999 11.865540527343748 0.9412499999999999 Q 11.881290527343749 0.9539999999999998 11.90079052734375 0.9539999999999998 L 11.95029052734375 0.9539999999999998 L 11.95029052734375 1.0904999999999998 Q 11.93529052734375 1.0979999999999999 11.90379052734375 1.10625 Q 11.872290527343749 1.1144999999999998 11.827290527343749 1.1144999999999998 Q 11.783790527343749 1.1144999999999998 11.75004052734375 1.1017499999999998 Q 11.71629052734375 1.089 11.693790527343749 1.06575 Q 11.67129052734375 1.0424999999999998 11.66229052734375 1.0094999999999998 L 11.65179052734375 1.0094999999999998 Q 11.626290527343748 1.041 11.589540527343749 1.065 Q 11.552790527343749 1.089 11.504040527343749 1.1024999999999998 Q 11.455290527343749 1.1159999999999999 11.39229052734375 1.1159999999999999 M 11.46279052734375 0.9584999999999999 Q 11.504790527343749 0.9584999999999999 11.537790527343748 0.9457499999999999 Q 11.57079052734375 0.9329999999999998 11.593290527343749 0.9112499999999999 Q 11.61579052734375 0.8894999999999998 11.628540527343748 0.8579999999999999 Q 11.641290527343749 0.8264999999999998 11.641290527343749 0.7904999999999999 L 11.641290527343749 0.7469999999999999 Q 11.55729052734375 0.7469999999999999 11.491290527343748 0.7582499999999999 Q 11.42529052734375 0.7694999999999999 11.38704052734375 0.7964999999999999 Q 11.348790527343748 0.8234999999999999 11.348790527343748 0.8714999999999998 Q 11.348790527343748 0.8984999999999999 11.362290527343749 0.9179999999999999 Q 11.37579052734375 0.9374999999999999 11.401290527343749 0.9479999999999998 Q 11.42679052734375 0.9584999999999999 11.46279052734375 0.9584999999999999" fill="#ffffff" fill-rule="nonzero"></path></g><g><path d=" M 0.3190909090909091 1.7331613636363634 Q 0.2788636363636363 1.7706613636363635 0.1984090909090909 1.7706613636363635 L 0.10227272727272727 1.7706613636363635 L 0.10227272727272727 1.9738431818181816 L 0.05454545454545454 1.9738431818181816 L 0.05454545454545454 1.4972522727272726 L 0.1984090909090909 1.4972522727272726 Q 0.27818181818181814 1.4972522727272726 0.31875 1.5347522727272727 Q 0.3593181818181818 1.5722522727272725 0.3593181818181818 1.634297727272727 Q 0.3593181818181818 1.6956613636363636 0.3190909090909091 1.7331613636363634 M 0.3102272727272727 1.634297727272727 Q 0.3102272727272727 1.5865704545454544 0.28363636363636363 1.5620249999999998 Q 0.2570454545454545 1.5374795454545453 0.1984090909090909 1.5374795454545453 L 0.10227272727272727 1.5374795454545453 L 0.10227272727272727 1.7297522727272725 L 0.1984090909090909 1.7297522727272725 Q 0.3102272727272727 1.7297522727272725 0.3102272727272727 1.634297727272727 M 0.44013128107244315 1.686456818181818 Q 0.4629721901633522 1.6431613636363636 0.5035403719815341 1.6196386363636361 Q 0.5441085537997159 1.596115909090909 0.5952449174360795 1.596115909090909 Q 0.6484267356178977 1.596115909090909 0.686949462890625 1.6206613636363634 Q 0.7254721901633523 1.645206818181818 0.7425176447088068 1.6833886363636363 L 0.7425176447088068 1.6015704545454543 L 0.7902449174360795 1.6015704545454543 L 0.7902449174360795 1.9738431818181816 L 0.7425176447088068 1.9738431818181816 L 0.7425176447088068 1.8913431818181816 Q 0.7247903719815341 1.929525 0.6862676447088067 1.9544113636363634 Q 0.6477449174360795 1.979297727272727 0.5945630992542613 1.979297727272727 Q 0.5441085537997159 1.979297727272727 0.5035403719815341 1.9554340909090908 Q 0.4629721901633522 1.9315704545454544 0.44013128107244315 1.8879340909090907 Q 0.41729037198153407 1.844297727272727 0.41729037198153407 1.7870249999999999 Q 0.41729037198153407 1.7297522727272725 0.44013128107244315 1.686456818181818 M 0.7241085537997158 1.708615909090909 Q 0.705699462890625 1.6745249999999998 0.6739949174360795 1.656115909090909 Q 0.642290371981534 1.637706818181818 0.6041085537997158 1.637706818181818 Q 0.5645630992542614 1.637706818181818 0.5331994628906249 1.6554340909090908 Q 0.5018358265269887 1.6731613636363636 0.4837676447088068 1.7069113636363635 Q 0.46569946289062497 1.7406613636363635 0.46569946289062497 1.7870249999999999 Q 0.46569946289062497 1.832706818181818 0.4837676447088068 1.8671386363636362 Q 0.5018358265269887 1.9015704545454544 0.5331994628906249 1.9196386363636362 Q 0.5645630992542614 1.937706818181818 0.6041085537997158 1.937706818181818 Q 0.642290371981534 1.937706818181818 0.6739949174360795 1.9192977272727272 Q 0.705699462890625 1.9008886363636361 0.7241085537997158 1.8667977272727272 Q 0.7425176447088068 1.832706818181818 0.7425176447088068 1.787706818181818 Q 0.7425176447088068 1.742706818181818 0.7241085537997158 1.708615909090909 M 0.9228502308238635 1.9496386363636362 Q 0.8822820490056817 1.9199795454545452 0.8775093217329545 1.8688431818181817 L 0.9266002308238636 1.8688431818181817 Q 0.9300093217329545 1.900206818181818 0.9562593217329545 1.9196386363636362 Q 0.9825093217329545 1.9390704545454545 1.0268275035511363 1.9390704545454545 Q 1.0656911399147726 1.9390704545454545 1.0878502308238636 1.9206613636363634 Q 1.1100093217329545 1.9022522727272726 1.1100093217329545 1.8749795454545453 Q 1.1100093217329545 1.8558886363636362 1.097736594460227 1.843615909090909 Q 1.0854638671874999 1.8313431818181816 1.0667138671875 1.8241840909090907 Q 1.0479638671875 1.817025 1.0159184126420453 1.8088431818181816 Q 0.9743275035511363 1.7979340909090906 0.9484184126420454 1.7870249999999999 Q 0.9225093217329545 1.7761159090909089 0.9044411399147727 1.7546386363636362 Q 0.8863729580965909 1.7331613636363634 0.8863729580965909 1.6970249999999998 Q 0.8863729580965909 1.6697522727272727 0.9027365944602272 1.6465704545454543 Q 0.9191002308238636 1.6233886363636363 0.9491002308238636 1.6097522727272726 Q 0.9791002308238635 1.596115909090909 1.0172820490056818 1.596115909090909 Q 1.0772820490056818 1.596115909090909 1.1141002308238637 1.626456818181818 Q 1.1509184126420453 1.656797727272727 1.1536456853693182 1.7099795454545452 L 1.1059184126420454 1.7099795454545452 Q 1.103872958096591 1.6772522727272725 1.0803502308238635 1.6571386363636362 Q 1.0568275035511363 1.637025 1.0159184126420453 1.637025 Q 0.9797820490056818 1.637025 0.9572820490056817 1.6540704545454543 Q 0.9347820490056817 1.671115909090909 0.9347820490056817 1.6963431818181816 Q 0.9347820490056817 1.7181613636363635 0.9480775035511363 1.7321386363636362 Q 0.9613729580965908 1.7461159090909089 0.9811456853693181 1.753956818181818 Q 1.0009184126420454 1.761797727272727 1.0343275035511363 1.7713431818181817 Q 1.0745547762784091 1.7822522727272725 1.0984184126420453 1.7924795454545452 Q 1.1222820490056817 1.802706818181818 1.1393275035511363 1.8224795454545453 Q 1.156372958096591 1.8422522727272725 1.1570547762784091 1.8749795454545453 Q 1.1570547762784091 1.9049795454545453 1.1406911399147726 1.9285022727272725 Q 1.1243275035511364 1.952025 1.0950093217329544 1.9656613636363633 Q 1.0656911399147726 1.979297727272727 1.0275093217329545 1.979297727272727 Q 0.9634184126420454 1.979297727272727 0.9228502308238635 1.9496386363636362 M 1.2705841619318181 1.9496386363636362 Q 1.2300159801136363 1.9199795454545452 1.225243252840909 1.8688431818181817 L 1.274334161931818 1.8688431818181817 Q 1.277743252840909 1.900206818181818 1.303993252840909 1.9196386363636362 Q 1.330243252840909 1.9390704545454545 1.3745614346590909 1.9390704545454545 Q 1.4134250710227272 1.9390704545454545 1.4355841619318181 1.9206613636363634 Q 1.4577432528409089 1.9022522727272726 1.4577432528409089 1.8749795454545453 Q 1.4577432528409089 1.8558886363636362 1.4454705255681817 1.843615909090909 Q 1.4331977982954545 1.8313431818181816 1.4144477982954544 1.8241840909090907 Q 1.3956977982954544 1.817025 1.3636523437499999 1.8088431818181816 Q 1.3220614346590909 1.7979340909090906 1.2961523437499998 1.7870249999999999 Q 1.2702432528409089 1.7761159090909089 1.252175071022727 1.7546386363636362 Q 1.2341068892045453 1.7331613636363634 1.2341068892045453 1.6970249999999998 Q 1.2341068892045453 1.6697522727272727 1.2504705255681816 1.6465704545454543 Q 1.266834161931818 1.6233886363636363 1.296834161931818 1.6097522727272726 Q 1.326834161931818 1.596115909090909 1.3650159801136361 1.596115909090909 Q 1.4250159801136362 1.596115909090909 1.461834161931818 1.626456818181818 Q 1.49865234375 1.656797727272727 1.5013796164772726 1.7099795454545452 L 1.45365234375 1.7099795454545452 Q 1.4516068892045453 1.6772522727272725 1.428084161931818 1.6571386363636362 Q 1.4045614346590907 1.637025 1.3636523437499999 1.637025 Q 1.3275159801136363 1.637025 1.3050159801136363 1.6540704545454543 Q 1.2825159801136363 1.671115909090909 1.2825159801136363 1.6963431818181816 Q 1.2825159801136363 1.7181613636363635 1.2958114346590908 1.7321386363636362 Q 1.3091068892045454 1.7461159090909089 1.3288796164772725 1.753956818181818 Q 1.34865234375 1.761797727272727 1.3820614346590907 1.7713431818181817 Q 1.4222887073863635 1.7822522727272725 1.44615234375 1.7924795454545452 Q 1.470015980113636 1.802706818181818 1.4870614346590907 1.8224795454545453 Q 1.5041068892045453 1.8422522727272725 1.5047887073863635 1.8749795454545453 Q 1.5047887073863635 1.9049795454545453 1.4884250710227271 1.9285022727272725 Q 1.4720614346590908 1.952025 1.442743252840909 1.9656613636363633 Q 1.4134250710227272 1.979297727272727 1.3752432528409089 1.979297727272727 Q 1.31115234375 1.979297727272727 1.2705841619318181 1.9496386363636362 M 1.5941135475852273 1.521115909090909 Q 1.5838862748579545 1.5108886363636362 1.5838862748579545 1.4958886363636363 Q 1.5838862748579545 1.4808886363636362 1.5941135475852273 1.4710022727272727 Q 1.6043408203124998 1.461115909090909 1.6186590021306817 1.461115909090909 Q 1.6329771839488636 1.461115909090909 1.6432044566761363 1.4710022727272727 Q 1.653431729403409 1.4808886363636362 1.653431729403409 1.4958886363636363 Q 1.653431729403409 1.5108886363636362 1.6432044566761363 1.521115909090909 Q 1.6329771839488636 1.5313431818181817 1.6186590021306817 1.5313431818181817 Q 1.6043408203124998 1.5313431818181817 1.5941135475852273 1.521115909090909 M 1.6425226384943181 1.6015704545454543 L 1.6425226384943181 1.9738431818181816 L 1.5947953657670453 1.9738431818181816 L 1.5947953657670453 1.6015704545454543 L 1.6425226384943181 1.6015704545454543 M 1.8194571200284089 1.9557749999999998 Q 1.7775253018465906 1.9322522727272726 1.7533207563920452 1.888956818181818 Q 1.7291162109374998 1.8456613636363635 1.7291162109374998 1.787706818181818 Q 1.7291162109374998 1.7297522727272725 1.7536616654829544 1.686456818181818 Q 1.7782071200284089 1.6431613636363636 1.820479847301136 1.6196386363636361 Q 1.8627525745738633 1.596115909090909 1.9152525745738633 1.596115909090909 Q 1.9677525745738635 1.596115909090909 2.0103662109375 1.6196386363636361 Q 2.052979847301136 1.6431613636363636 2.0771843927556817 1.686456818181818 Q 2.101388938210227 1.7297522727272725 2.101388938210227 1.787706818181818 Q 2.101388938210227 1.8449795454545452 2.0768434836647724 1.888615909090909 Q 2.052298029119318 1.9322522727272726 2.0093434836647726 1.9557749999999998 Q 1.966388938210227 1.979297727272727 1.913888938210227 1.979297727272727 Q 1.861388938210227 1.979297727272727 1.8194571200284089 1.9557749999999998 M 1.9820707563920452 1.9210022727272726 Q 2.0134343927556815 1.904297727272727 2.0328662109374998 1.8705477272727271 Q 2.052298029119318 1.8367977272727272 2.052298029119318 1.787706818181818 Q 2.052298029119318 1.738615909090909 2.033207120028409 1.7048659090909088 Q 2.0141162109375 1.671115909090909 1.9827525745738634 1.6544113636363635 Q 1.951388938210227 1.637706818181818 1.9145707563920453 1.637706818181818 Q 1.8777525745738635 1.637706818181818 1.846388938210227 1.6544113636363635 Q 1.8150253018465907 1.671115909090909 1.7962753018465907 1.7048659090909088 Q 1.7775253018465906 1.738615909090909 1.7775253018465906 1.787706818181818 Q 1.7775253018465906 1.8367977272727272 1.7962753018465907 1.8705477272727271 Q 1.8150253018465907 1.904297727272727 1.846048029119318 1.9210022727272726 Q 1.8770707563920452 1.937706818181818 1.913888938210227 1.937706818181818 Q 1.950707120028409 1.937706818181818 1.9820707563920452 1.9210022727272726 M 2.4723176713423296 1.6360022727272725 Q 2.5145903986150566 1.6772522727272725 2.5145903986150566 1.7556613636363634 L 2.5145903986150566 1.9738431818181816 L 2.4675449440696022 1.9738431818181816 L 2.4675449440696022 1.761115909090909 Q 2.4675449440696022 1.7004340909090907 2.437204034978693 1.6683886363636362 Q 2.406863125887784 1.6363431818181817 2.354363125887784 1.6363431818181817 Q 2.3004994895241477 1.6363431818181817 2.268454034978693 1.6704340909090907 Q 2.2364085804332383 1.7045249999999998 2.2364085804332383 1.7706613636363635 L 2.2364085804332383 1.9738431818181816 L 2.188681307705966 1.9738431818181816 L 2.188681307705966 1.6015704545454543 L 2.2364085804332383 1.6015704545454543 L 2.2364085804332383 1.6649795454545453 Q 2.2541358531605113 1.6308886363636361 2.287544944069602 1.6128204545454543 Q 2.3209540349786932 1.5947522727272725 2.3632267622514203 1.5947522727272725 Q 2.430044944069602 1.5947522727272725 2.4723176713423296 1.6360022727272725 M 2.8756011408025564 1.9557749999999998 Q 2.833669322620738 1.9322522727272726 2.809464777166193 1.888956818181818 Q 2.7852602317116473 1.8456613636363635 2.7852602317116473 1.787706818181818 Q 2.7852602317116473 1.7297522727272725 2.8098056862571017 1.686456818181818 Q 2.8343511408025566 1.6431613636363636 2.8766238680752836 1.6196386363636361 Q 2.918896595348011 1.596115909090909 2.971396595348011 1.596115909090909 Q 3.023896595348011 1.596115909090909 3.0665102317116473 1.6196386363636361 Q 3.1091238680752835 1.6431613636363636 3.133328413529829 1.686456818181818 Q 3.1575329589843744 1.7297522727272725 3.1575329589843744 1.787706818181818 Q 3.1575329589843744 1.8449795454545452 3.13298750443892 1.888615909090909 Q 3.1084420498934655 1.9322522727272726 3.06548750443892 1.9557749999999998 Q 3.0225329589843746 1.979297727272727 2.9700329589843744 1.979297727272727 Q 2.9175329589843746 1.979297727272727 2.8756011408025564 1.9557749999999998 M 3.0382147771661927 1.9210022727272726 Q 3.069578413529829 1.904297727272727 3.0890102317116472 1.8705477272727271 Q 3.1084420498934655 1.8367977272727272 3.1084420498934655 1.787706818181818 Q 3.1084420498934655 1.738615909090909 3.0893511408025565 1.7048659090909088 Q 3.0702602317116474 1.671115909090909 3.0388965953480107 1.6544113636363635 Q 3.0075329589843744 1.637706818181818 2.970714777166193 1.637706818181818 Q 2.9338965953480107 1.637706818181818 2.9025329589843745 1.6544113636363635 Q 2.871169322620738 1.671115909090909 2.8524193226207384 1.7048659090909088 Q 2.833669322620738 1.738615909090909 2.833669322620738 1.787706818181818 Q 2.833669322620738 1.8367977272727272 2.8524193226207384 1.8705477272727271 Q 2.871169322620738 1.904297727272727 2.9021920498934657 1.9210022727272726 Q 2.9332147771661927 1.937706818181818 2.9700329589843744 1.937706818181818 Q 3.0068511408025564 1.937706818181818 3.0382147771661927 1.9210022727272726 M 3.3914162375710224 1.641797727272727 L 3.3048253284801135 1.641797727272727 L 3.3048253284801135 1.9738431818181816 L 3.2570980557528406 1.9738431818181816 L 3.2570980557528406 1.641797727272727 L 3.205279873934659 1.641797727272727 L 3.205279873934659 1.6015704545454543 L 3.2570980557528406 1.6015704545454543 L 3.2570980557528406 1.5756613636363634 Q 3.2570980557528406 1.5149795454545454 3.2881207830255677 1.4863431818181816 Q 3.319143510298295 1.457706818181818 3.3886889648437495 1.457706818181818 L 3.3886889648437495 1.498615909090909 Q 3.342325328480113 1.498615909090909 3.3235753284801133 1.5163431818181816 Q 3.3048253284801135 1.5340704545454544 3.3048253284801135 1.5756613636363634 L 3.3048253284801135 1.6015704545454543 L 3.3914162375710224 1.6015704545454543 L 3.3914162375710224 1.641797727272727 M 3.91777920809659 1.7331613636363634 Q 3.8775519353693175 1.7706613636363635 3.797097389914772 1.7706613636363635 L 3.7009610262784083 1.7706613636363635 L 3.7009610262784083 1.9738431818181816 L 3.653233753551136 1.9738431818181816 L 3.653233753551136 1.4972522727272726 L 3.797097389914772 1.4972522727272726 Q 3.8768701171874995 1.4972522727272726 3.9174382990056813 1.5347522727272727 Q 3.958006480823863 1.5722522727272725 3.958006480823863 1.634297727272727 Q 3.958006480823863 1.6956613636363636 3.91777920809659 1.7331613636363634 M 3.908915571732954 1.634297727272727 Q 3.908915571732954 1.5865704545454544 3.882324662642045 1.5620249999999998 Q 3.8557337535511356 1.5374795454545453 3.797097389914772 1.5374795454545453 L 3.7009610262784083 1.5374795454545453 L 3.7009610262784083 1.7297522727272725 L 3.797097389914772 1.7297522727272725 Q 3.908915571732954 1.7297522727272725 3.908915571732954 1.634297727272727 M 4.373251398259942 1.806115909090909 L 4.064387761896306 1.806115909090909 Q 4.0664332164417605 1.8483886363636362 4.0848423073508515 1.8783886363636362 Q 4.103251398259943 1.9083886363636362 4.133251398259943 1.9237295454545453 Q 4.163251398259942 1.9390704545454545 4.198705943714488 1.9390704545454545 Q 4.245069580078124 1.9390704545454545 4.27677412553267 1.9165704545454543 Q 4.308478670987215 1.8940704545454543 4.3187059437144875 1.8558886363636362 L 4.369160489169033 1.8558886363636362 Q 4.3555241255326695 1.9104340909090907 4.310865034623578 1.9448659090909088 Q 4.266205943714488 1.979297727272727 4.198705943714488 1.979297727272727 Q 4.146205943714488 1.979297727272727 4.104615034623579 1.9557749999999998 Q 4.06302412553267 1.9322522727272726 4.039501398259943 1.888956818181818 Q 4.015978670987216 1.8456613636363635 4.015978670987216 1.787706818181818 Q 4.015978670987216 1.7297522727272725 4.039160489169033 1.6861159090909088 Q 4.0623423073508516 1.6424795454545453 4.103933216441761 1.6192977272727271 Q 4.14552412553267 1.596115909090909 4.198705943714488 1.596115909090909 Q 4.251887761896306 1.596115909090909 4.29177412553267 1.6192977272727271 Q 4.331660489169034 1.6424795454545453 4.353137761896306 1.6816840909090907 Q 4.374615034623579 1.7208886363636362 4.374615034623579 1.7686159090909088 Q 4.374615034623579 1.7931613636363635 4.373251398259942 1.806115909090909 M 4.309501398259942 1.6963431818181816 Q 4.292115034623579 1.6670249999999998 4.262115034623578 1.6520249999999999 Q 4.232115034623579 1.637025 4.196660489169034 1.637025 Q 4.143478670987215 1.637025 4.1059786709872155 1.671115909090909 Q 4.068478670987215 1.705206818181818 4.064387761896306 1.7672522727272726 L 4.326205943714488 1.7672522727272726 Q 4.326887761896306 1.7256613636363634 4.309501398259942 1.6963431818181816 M 4.557689541903408 1.6138431818181815 Q 4.590075905539772 1.5947522727272725 4.637121360085226 1.5947522727272725 L 4.637121360085226 1.6445249999999998 L 4.624166814630681 1.6445249999999998 Q 4.572348632812499 1.6445249999999998 4.540984996448863 1.6724795454545454 Q 4.509621360085227 1.7004340909090907 4.509621360085227 1.7658886363636361 L 4.509621360085227 1.9738431818181816 L 4.461894087357954 1.9738431818181816 L 4.461894087357954 1.6015704545454543 L 4.509621360085227 1.6015704545454543 L 4.509621360085227 1.667706818181818 Q 4.525303178267045 1.6329340909090908 4.557689541903408 1.6138431818181815 M 4.85530284534801 1.641797727272727 L 4.768711936257101 1.641797727272727 L 4.768711936257101 1.9738431818181816 L 4.720984663529828 1.9738431818181816 L 4.720984663529828 1.641797727272727 L 4.669166481711646 1.641797727272727 L 4.669166481711646 1.6015704545454543 L 4.720984663529828 1.6015704545454543 L 4.720984663529828 1.5756613636363634 Q 4.720984663529828 1.5149795454545454 4.7520073908025555 1.4863431818181816 Q 4.783030118075283 1.457706818181818 4.852575572620737 1.457706818181818 L 4.852575572620737 1.498615909090909 Q 4.806211936257101 1.498615909090909 4.787461936257101 1.5163431818181816 Q 4.768711936257101 1.5340704545454544 4.768711936257101 1.5756613636363634 L 4.768711936257101 1.6015704545454543 L 4.85530284534801 1.6015704545454543 L 4.85530284534801 1.641797727272727 M 5.265765713778408 1.806115909090909 L 4.956902077414772 1.806115909090909 Q 4.958947531960226 1.8483886363636362 4.977356622869317 1.8783886363636362 Q 4.995765713778408 1.9083886363636362 5.025765713778409 1.9237295454545453 Q 5.055765713778408 1.9390704545454545 5.091220259232954 1.9390704545454545 Q 5.13758389559659 1.9390704545454545 5.169288441051136 1.9165704545454543 Q 5.200992986505681 1.8940704545454543 5.211220259232954 1.8558886363636362 L 5.261674804687499 1.8558886363636362 Q 5.248038441051135 1.9104340909090907 5.203379350142044 1.9448659090909088 Q 5.158720259232954 1.979297727272727 5.091220259232954 1.979297727272727 Q 5.038720259232954 1.979297727272727 4.997129350142044 1.9557749999999998 Q 4.955538441051136 1.9322522727272726 4.932015713778409 1.888956818181818 Q 4.908492986505681 1.8456613636363635 4.908492986505681 1.787706818181818 Q 4.908492986505681 1.7297522727272725 4.931674804687499 1.6861159090909088 Q 4.954856622869317 1.6424795454545453 4.996447531960227 1.6192977272727271 Q 5.038038441051135 1.596115909090909 5.091220259232954 1.596115909090909 Q 5.144402077414772 1.596115909090909 5.184288441051136 1.6192977272727271 Q 5.224174804687499 1.6424795454545453 5.245652077414772 1.6816840909090907 Q 5.267129350142045 1.7208886363636362 5.267129350142045 1.7686159090909088 Q 5.267129350142045 1.7931613636363635 5.265765713778408 1.806115909090909 M 5.202015713778408 1.6963431818181816 Q 5.184629350142044 1.6670249999999998 5.154629350142045 1.6520249999999999 Q 5.124629350142045 1.637025 5.089174804687499 1.637025 Q 5.035992986505681 1.637025 4.998492986505681 1.671115909090909 Q 4.960992986505681 1.705206818181818 4.956902077414772 1.7672522727272726 L 5.218720259232954 1.7672522727272726 Q 5.219402077414772 1.7256613636363634 5.202015713778408 1.6963431818181816 M 5.355772039240056 1.686456818181818 Q 5.378953857421874 1.6431613636363636 5.419862948330965 1.6196386363636361 Q 5.460772039240056 1.596115909090909 5.513272039240055 1.596115909090909 Q 5.582135675603692 1.596115909090909 5.626794766512783 1.6302068181818181 Q 5.671453857421874 1.664297727272727 5.68440840287642 1.7229340909090907 L 5.6332720392400555 1.7229340909090907 Q 5.623726584694602 1.6827068181818179 5.592022039240056 1.659865909090909 Q 5.560317493785511 1.637025 5.513272039240055 1.637025 Q 5.475772039240056 1.637025 5.4457720392400555 1.6540704545454543 Q 5.415772039240056 1.671115909090909 5.398385675603692 1.7048659090909088 Q 5.3809993119673285 1.738615909090909 5.3809993119673285 1.787706818181818 Q 5.3809993119673285 1.8367977272727272 5.398385675603692 1.8708886363636361 Q 5.415772039240056 1.9049795454545453 5.4457720392400555 1.9220249999999999 Q 5.475772039240056 1.9390704545454545 5.513272039240055 1.9390704545454545 Q 5.560317493785511 1.9390704545454545 5.592022039240056 1.9162295454545453 Q 5.623726584694602 1.8933886363636363 5.6332720392400555 1.8524795454545453 L 5.68440840287642 1.8524795454545453 Q 5.671453857421874 1.9097522727272724 5.626453857421874 1.9445249999999998 Q 5.581453857421874 1.979297727272727 5.513272039240055 1.979297727272727 Q 5.460772039240056 1.979297727272727 5.419862948330965 1.9557749999999998 Q 5.378953857421874 1.9322522727272726 5.355772039240056 1.888956818181818 Q 5.332590221058238 1.8456613636363635 5.332590221058238 1.787706818181818 Q 5.332590221058238 1.7297522727272725 5.355772039240056 1.686456818181818 M 5.834392089843749 1.641797727272727 L 5.834392089843749 1.8729340909090908 Q 5.834392089843749 1.9070249999999997 5.847346635298295 1.9199795454545452 Q 5.86030118075284 1.9329340909090906 5.893028453480112 1.9329340909090906 L 5.936664817116476 1.9329340909090906 L 5.936664817116476 1.9738431818181816 L 5.885528453480113 1.9738431818181816 Q 5.835073908025567 1.9738431818181816 5.810528453480113 1.9503204545454544 Q 5.785982998934658 1.926797727272727 5.785982998934658 1.8729340909090908 L 5.785982998934658 1.641797727272727 L 5.7341648171164765 1.641797727272727 L 5.7341648171164765 1.6015704545454543 L 5.785982998934658 1.6015704545454543 L 5.785982998934658 1.5081613636363636 L 5.834392089843749 1.5081613636363636 L 5.834392089843749 1.6015704545454543 L 5.936664817116476 1.6015704545454543 L 5.936664817116476 1.641797727272727 L 5.834392089843749 1.641797727272727 M 6.01440440784801 1.521115909090909 Q 6.004177135120738 1.5108886363636362 6.004177135120738 1.4958886363636363 Q 6.004177135120738 1.4808886363636362 6.01440440784801 1.4710022727272727 Q 6.0246316805752835 1.461115909090909 6.038949862393465 1.461115909090909 Q 6.053268044211647 1.461115909090909 6.063495316938919 1.4710022727272727 Q 6.073722589666192 1.4808886363636362 6.073722589666192 1.4958886363636363 Q 6.073722589666192 1.5108886363636362 6.063495316938919 1.521115909090909 Q 6.053268044211647 1.5313431818181817 6.038949862393465 1.5313431818181817 Q 6.0246316805752835 1.5313431818181817 6.01440440784801 1.521115909090909 M 6.062813498757102 1.6015704545454543 L 6.062813498757102 1.9738431818181816 L 6.015086226029829 1.9738431818181816 L 6.015086226029829 1.6015704545454543 L 6.062813498757102 1.6015704545454543 M 6.239747980291193 1.9557749999999998 Q 6.197816162109374 1.9322522727272726 6.173611616654829 1.888956818181818 Q 6.149407071200284 1.8456613636363635 6.149407071200284 1.787706818181818 Q 6.149407071200284 1.7297522727272725 6.173952525745738 1.686456818181818 Q 6.198497980291193 1.6431613636363636 6.24077070756392 1.6196386363636361 Q 6.283043434836647 1.596115909090909 6.335543434836647 1.596115909090909 Q 6.388043434836647 1.596115909090909 6.430657071200283 1.6196386363636361 Q 6.47327070756392 1.6431613636363636 6.497475253018465 1.686456818181818 Q 6.521679798473011 1.7297522727272725 6.521679798473011 1.787706818181818 Q 6.521679798473011 1.8449795454545452 6.497134343927557 1.888615909090909 Q 6.472588889382101 1.9322522727272726 6.429634343927556 1.9557749999999998 Q 6.38667979847301 1.979297727272727 6.334179798473011 1.979297727272727 Q 6.281679798473011 1.979297727272727 6.239747980291193 1.9557749999999998 M 6.402361616654829 1.9210022727272726 Q 6.433725253018466 1.904297727272727 6.453157071200284 1.8705477272727271 Q 6.472588889382101 1.8367977272727272 6.472588889382101 1.787706818181818 Q 6.472588889382101 1.738615909090909 6.453497980291193 1.7048659090909088 Q 6.434407071200283 1.671115909090909 6.403043434836647 1.6544113636363635 Q 6.371679798473011 1.637706818181818 6.334861616654829 1.637706818181818 Q 6.298043434836647 1.637706818181818 6.266679798473011 1.6544113636363635 Q 6.235316162109374 1.671115909090909 6.216566162109374 1.7048659090909088 Q 6.197816162109374 1.738615909090909 6.197816162109374 1.787706818181818 Q 6.197816162109374 1.8367977272727272 6.216566162109374 1.8705477272727271 Q 6.235316162109374 1.904297727272727 6.2663388893821015 1.9210022727272726 Q 6.297361616654829 1.937706818181818 6.334179798473011 1.937706818181818 Q 6.370997980291192 1.937706818181818 6.402361616654829 1.9210022727272726 M 6.892608531605113 1.6360022727272725 Q 6.934881258877841 1.6772522727272725 6.934881258877841 1.7556613636363634 L 6.934881258877841 1.9738431818181816 L 6.8878358043323855 1.9738431818181816 L 6.8878358043323855 1.761115909090909 Q 6.8878358043323855 1.7004340909090907 6.8574948952414765 1.6683886363636362 Q 6.8271539861505675 1.6363431818181817 6.774653986150568 1.6363431818181817 Q 6.720790349786931 1.6363431818181817 6.688744895241477 1.6704340909090907 Q 6.6566994406960225 1.7045249999999998 6.6566994406960225 1.7706613636363635 L 6.6566994406960225 1.9738431818181816 L 6.60897216796875 1.9738431818181816 L 6.60897216796875 1.6015704545454543 L 6.6566994406960225 1.6015704545454543 L 6.6566994406960225 1.6649795454545453 Q 6.674426713423295 1.6308886363636361 6.707835804332386 1.6128204545454543 Q 6.7412448952414765 1.5947522727272725 6.783517622514204 1.5947522727272725 Q 6.850335804332386 1.5947522727272725 6.892608531605113 1.6360022727272725" fill="#facf0e" fill-rule="nonzero"></path></g></g><defs><clipPath id="SvgjsClipPath1001"><path d=" M -3.2242481221899117 -1.0832626030821433 h 2.824248122189912 v 4.140368387982468 h -2.824248122189912 Z"></path></clipPath><clipPath id="SvgjsClipPath100052cb2e90-023e-4716-90da-dfc52d983da2"><path d=" M -3.2242481221899117 -1.0832626030821433 L -0.3999999999999999 -1.0832626030821433 L -0.3999999999999999 3.0571057849003247 L -3.2242481221899117 3.0571057849003247 Z"></path></clipPath></defs></svg>